<svg width="1761pt" height="410pt" viewBox="0.00 0.00 1760.95 410.00" xmlns="http://www.w3.org/2000/svg"><g class="graph" transform="translate(4 406)"><title>%3</title><path fill="#fff" stroke="transparent" d="M-4 4v-410h1760.951v410h-1760.951z"/><g class="cluster"><title>cluster-nid-10</title><path stroke="#ccc" fill="none" d="M8-228v-66h394.958v66h-394.958z"/></g><g class="cluster"><title>cluster-nid-11</title><path stroke="#ccc" fill="none" d="M8-154v-66h394.958v66h-394.958z"/></g><g class="cluster"><title>cluster-nid-13</title><path stroke="#ccc" fill="none" d="M1349.993-103v-66h394.958v66h-394.958z"/></g><g class="cluster"><title>cluster-nid-14</title><path stroke="#ccc" fill="none" d="M1349.993-191v-66h394.958v66h-394.958z"/></g><g class="cluster"><title>cluster-nid-15</title><path stroke="#ccc" fill="none" d="M605.36-272v-122h512.416v122h-512.416z"/></g><g class="cluster"><title>cluster-nid-16-in</title><path stroke="#ccc" fill="none" d="M606.519-184v-80h174.946v80h-174.946z"/></g><g class="cluster"><title>cluster-nid-17-in</title><path stroke="#ccc" fill="none" d="M602.958-96v-80h182.069v80h-182.069z"/></g><g class="cluster"><title>cluster-nid-18-out</title><path stroke="#ccc" fill="none" d="M985.027-8v-80h164.966v80h-164.966z"/></g><g class="cluster"><title>cluster-nid-19-out</title><path stroke="#ccc" fill="none" d="M989.703-96v-80h155.614v80h-155.614z"/></g><g class="cluster"><title>cluster-nid-1a-out</title><path stroke="#ccc" fill="none" d="M989.136-184v-80h156.749v80h-156.749z"/></g><g class="node"><title>nid-10</title><ellipse stroke="#00f" cx="70.479" cy="-261" rx="54.458" ry="25.412" fill="none"/><text text-anchor="middle" x="70.479" y="-263.8" font-family="Times,serif" font-size="14">0x10</text><text text-anchor="middle" x="70.479" y="-249.8" font-family="Times,serif" font-size="14">Stereo R/L</text></g><g class="node"><title>nid-10-ampout</title><path stroke="#c8c8c8" fill="none" d="M394.958-261l-40.5-18v36l40.5-18z"/></g><g class="edge"><title>nid-10-&gt;nid-10-ampout</title><path stroke="#c8c8c8" d="M125.041-261h224.279" fill="none"/><path fill="#c8c8c8" stroke="#c8c8c8" d="M349.357-262.75l5 1.75-5 1.75v-3.5z"/></g><g class="node"><title>nid-15-ampin-16</title><path stroke="#00f" fill="none" d="M774.758-364l-121.148-22v44l121.148-22z"/><text text-anchor="middle" x="693.993" y="-359.8" font-family="Times,serif" font-size="14">0 (0x10)</text></g><g class="edge"><title>nid-10-ampout-&gt;nid-15-ampin-16</title><path stroke="#333" d="M384.126-266.108c46.913-14.82 184.489-58.283 259.569-82.002" fill="none"/><path fill="#333" stroke="#333" d="M642.827-351.506l10.59.325-8.481 6.35-2.109-6.675z"/></g><g class="node"><title>nid-16-in</title><path stroke="#0f0" fill="none" d="M773.439-256h-158.893v64h158.893v-64z"/><text text-anchor="middle" x="693.993" y="-240.8" font-family="Times,serif" font-size="14">0x16</text><text text-anchor="middle" x="693.993" y="-226.8" font-family="Times,serif" font-size="14">[Jack] HP Out at Ext Left</text><text text-anchor="middle" x="693.993" y="-212.8" font-family="Times,serif" font-size="14">Stereo</text><text text-anchor="middle" x="693.993" y="-198.8" font-family="Times,serif" font-size="14">OUT HP EAPD Detect</text></g><g class="edge"><title>nid-10-ampout-&gt;nid-16-in</title><path stroke="#333" d="M389.603-258.544c42.992 4.879 141.319 16.038 214.657 24.36" fill="none"/><path fill="#333" stroke="#333" d="M604.892-237.634l9.542 4.605-10.331 2.35.789-6.955z"/></g><g class="node"><title>nid-17-in</title><path stroke="#0f0" fill="none" d="M777.062-168h-166.139v64h166.139v-64z"/><text text-anchor="middle" x="693.993" y="-152.8" font-family="Times,serif" font-size="14">0x17</text><text text-anchor="middle" x="693.993" y="-138.8" font-family="Times,serif" font-size="14">[Fixed] Speaker at Int N/A</text><text text-anchor="middle" x="693.993" y="-124.8" font-family="Times,serif" font-size="14">Stereo</text><text text-anchor="middle" x="693.993" y="-110.8" font-family="Times,serif" font-size="14">OUT EAPD</text></g><g class="edge"><title>nid-10-ampout-&gt;nid-17-in</title><path stroke="#c0c0c0" stroke-dasharray="5,2" d="M382.814-255.304c37.99 14.565 141.119 54.104 218.314 83.7" fill="none"/><path fill="#c0c0c0" stroke="#c0c0c0" d="M602.799-174.712l8.084 6.848-10.59-.312 2.506-6.536z"/></g><g class="node"><title>nid-11</title><ellipse stroke="#00f" cx="70.479" cy="-187" rx="54.458" ry="25.412" fill="none"/><text text-anchor="middle" x="70.479" y="-189.8" font-family="Times,serif" font-size="14">0x11</text><text text-anchor="middle" x="70.479" y="-175.8" font-family="Times,serif" font-size="14">Stereo R/L</text></g><g class="node"><title>nid-11-ampout</title><path stroke="#00f" fill="none" d="M394.958-187l-40.5-18v36l40.5-18z"/></g><g class="edge"><title>nid-11-&gt;nid-11-ampout</title><path stroke="#00f" d="M125.041-187h224.279" fill="none"/><path fill="#00f" stroke="#00f" d="M349.357-188.75l5 1.75-5 1.75v-3.5z"/></g><g class="node"><title>nid-15-ampin-17</title><path stroke="#00f" fill="none" d="M773.962-302l-119.954-22v44l119.954-22z"/><text text-anchor="middle" x="693.993" y="-297.8" font-family="Times,serif" font-size="14">1 (0x11)</text></g><g class="edge"><title>nid-11-ampout-&gt;nid-15-ampin-17</title><path stroke="#333" d="M383.246-192.392c46.146-16.277 185.483-65.424 260.929-92.036" fill="none"/><path fill="#333" stroke="#333" d="M643.342-287.846l10.595-.026-8.266 6.627-2.328-6.601z"/></g><g class="edge"><title>nid-11-ampout-&gt;nid-16-in</title><path stroke="#c0c0c0" stroke-dasharray="5,2" d="M389.603-189.456c42.992-4.879 141.319-16.038 214.657-24.36" fill="none"/><path fill="#c0c0c0" stroke="#c0c0c0" d="M604.103-217.321l10.331 2.35-9.542 4.605-.789-6.955z"/></g><g class="edge"><title>nid-11-ampout-&gt;nid-17-in</title><path stroke="#333" d="M388.353-183.81c41.608 6.508 138.567 21.675 212.205 33.194" fill="none"/><path fill="#333" stroke="#333" d="M601.447-154.019l9.339 5.004-10.421 1.912 1.082-6.916z"/></g><g class="node"><title>nid-13</title><ellipse stroke="#f00" cx="1682.472" cy="-136" rx="54.458" ry="25.412" fill="none"/><text text-anchor="middle" x="1682.472" y="-138.8" font-family="Times,serif" font-size="14">0x13</text><text text-anchor="middle" x="1682.472" y="-124.8" font-family="Times,serif" font-size="14">Stereo R/L</text></g><g class="node"><title>nid-13-ampin</title><path stroke="#c8c8c8" fill="none" d="M1411.993-136l-40.5-18v36l40.5-18z"/></g><g class="edge"><title>nid-13-ampin-&gt;nid-13</title><path stroke="#c8c8c8" d="M1412.181-136h210.463" fill="none"/><path fill="#c8c8c8" stroke="#c8c8c8" d="M1622.967-137.75l5 1.75-5 1.75v-3.5z"/></g><g class="node"><title>nid-18-out</title><path stroke="#0f0" fill="none" d="M1141.976-80h-148.932v64h148.932v-64z"/><text text-anchor="middle" x="1067.51" y="-64.8" font-family="Times,serif" font-size="14">0x18</text><text text-anchor="middle" x="1067.51" y="-50.8" font-family="Times,serif" font-size="14">[N/A] Other at Ext N/A</text><text text-anchor="middle" x="1067.51" y="-36.8" font-family="Times,serif" font-size="14">Stereo</text><text text-anchor="middle" x="1067.51" y="-22.8" font-family="Times,serif" font-size="14">IN Detect</text></g><g class="edge"><title>nid-18-out-&gt;nid-13-ampin</title><path stroke="#c0c0c0" stroke-dasharray="5,2" d="M1142.347-68.743c71.112-19.711 173.748-48.16 219.325-60.792" fill="none"/><path fill="#c0c0c0" stroke="#c0c0c0" d="M1360.916-132.958l10.572.702-8.702 6.044-1.87-6.746z"/></g><g class="node"><title>nid-1a-out</title><path stroke="#0f0" fill="none" d="M1137.759-256h-140.498v64h140.498v-64z"/><text text-anchor="middle" x="1067.51" y="-240.8" font-family="Times,serif" font-size="14">0x1a</text><text text-anchor="middle" x="1067.51" y="-226.8" font-family="Times,serif" font-size="14">[Fixed] Mic at Int Top</text><text text-anchor="middle" x="1067.51" y="-212.8" font-family="Times,serif" font-size="14">Stereo</text><text text-anchor="middle" x="1067.51" y="-198.8" font-family="Times,serif" font-size="14">IN</text></g><g class="edge"><title>nid-1a-out-&gt;nid-13-ampin</title><path stroke="#333" d="M1137.97-204.47c71.182 19.73 177.089 49.085 223.64 61.989" fill="none"/><path fill="#333" stroke="#333" d="M1362.662-145.822l8.702 6.044-10.572.702 1.87-6.746z"/></g><g class="node"><title>nid-14-ampin</title><path stroke="#00f" fill="none" d="M1411.993-224l-40.5-18v36l40.5-18z"/></g><g class="edge"><title>nid-1a-out-&gt;nid-14-ampin</title><path stroke="#c0c0c0" stroke-dasharray="5,2" d="M1137.97-224h223.346" fill="none"/><path fill="#c0c0c0" stroke="#c0c0c0" d="M1361.364-227.5l10 3.5-10 3.5v-7z"/></g><g class="node"><title>nid-19-out</title><path stroke="#0f0" fill="none" d="M1137.125-168h-139.23v64h139.23v-64z"/><text text-anchor="middle" x="1067.51" y="-152.8" font-family="Times,serif" font-size="14">0x19</text><text text-anchor="middle" x="1067.51" y="-138.8" font-family="Times,serif" font-size="14">[Jack] Mic at Ext Left</text><text text-anchor="middle" x="1067.51" y="-124.8" font-family="Times,serif" font-size="14">Stereo</text><text text-anchor="middle" x="1067.51" y="-110.8" font-family="Times,serif" font-size="14">IN Detect</text></g><g class="edge"><title>nid-19-out-&gt;nid-13-ampin</title><path stroke="#c0c0c0" stroke-dasharray="5,2" d="M1137.183-136h224.008" fill="none"/><path fill="#c0c0c0" stroke="#c0c0c0" d="M1361.291-139.5l10 3.5-10 3.5v-7z"/></g><g class="edge"><title>nid-19-out-&gt;nid-14-ampin</title><path stroke="#333" d="M1137.183-155.312c71.123-19.714 177.516-49.204 224.304-62.173" fill="none"/><path fill="#333" stroke="#333" d="M1360.719-220.904l10.572.702-8.702 6.044-1.87-6.746z"/></g><g class="node"><title>nid-14</title><ellipse stroke="#f00" cx="1682.472" cy="-224" rx="54.458" ry="25.412" fill="none"/><text text-anchor="middle" x="1682.472" y="-226.8" font-family="Times,serif" font-size="14">0x14</text><text text-anchor="middle" x="1682.472" y="-212.8" font-family="Times,serif" font-size="14">Stereo R/L</text></g><g class="edge"><title>nid-14-ampin-&gt;nid-14</title><path stroke="#00f" d="M1412.181-224h210.463" fill="none"/><path fill="#00f" stroke="#00f" d="M1622.967-225.75l5 1.75-5 1.75v-3.5z"/></g><g class="node"><title>nid-15</title><path stroke="#000" fill="none" d="M1109.544-309l-21.017-29.288h-42.034l-21.017 29.288 21.017 29.288h42.034l21.017-29.288z"/><text text-anchor="middle" x="1067.51" y="-311.8" font-family="Times,serif" font-size="14">0x15</text><text text-anchor="middle" x="1067.51" y="-297.8" font-family="Times,serif" font-size="14">Stereo</text></g><g class="edge"><title>nid-15-&gt;nid-14-ampin</title><path stroke="#c0c0c0" stroke-dasharray="5,2" d="M1103.005-299.497c65.381 17.504 203.192 54.401 258.392 69.179" fill="none"/><path fill="#c0c0c0" stroke="#c0c0c0" d="M1362.535-233.636l8.755 5.967-10.565.795 1.81-6.762z"/></g><g class="edge"><title>nid-15-ampin-16-&gt;nid-15</title><path stroke="#00f" d="M738.677-357.42c72.331 10.651 214.147 31.533 285.562 42.049" fill="none"/><path fill="#00f" stroke="#00f" d="M1024.565-317.093l4.692 2.46-5.202 1.003.51-3.463z"/></g><g class="edge"><title>nid-15-ampin-17-&gt;nid-15</title><path stroke="#00f" d="M766.897-303.366c75.063-1.407 189.806-3.557 253.633-4.753" fill="none"/><path fill="#00f" stroke="#00f" d="M1020.758-309.874l5.032 1.656-4.966 1.843-.066-3.499z"/></g></g></svg>